HIERARCHY
ROOT Hips
{
	OFFSET 49.693501 5.667956 84.328499
	CHANNELS 6 Xposition Yposition Zposition Xrotation Yrotation Zrotation
	JOINT spine
	{
		OFFSET 0.000000 -0.359108 6.244797
		CHANNELS 3 Xrotation Yrotation Zrotation
		JOINT spine1
		{
			OFFSET 0.000000 -0.000001 9.069412
			CHANNELS 3 Xrotation Yrotation Zrotation
			JOINT spine2
			{
				OFFSET 0.000000 -0.000001 8.690140
				CHANNELS 3 Xrotation Yrotation Zrotation
				JOINT Neck
				{
					OFFSET 0.000000 -1.063724 22.311195
					CHANNELS 3 Xrotation Yrotation Zrotation
					JOINT Head
					{
						OFFSET 0.000000 -0.000001 6.740814
						CHANNELS 3 Xrotation Yrotation Zrotation
						End Site
						{
							OFFSET 0.000000 5.380968 16.316498
						}
					}
				}
				JOINT RightShoulder
				{
					OFFSET -3.659161 0.509512 9.384682
					CHANNELS 3 Xrotation Yrotation Zrotation
					JOINT RightArm
					{
						OFFSET 0.000000 -0.000002 12.308899
						CHANNELS 3 Xrotation Yrotation Zrotation
						JOINT RightArmRoll
						{
							OFFSET 0.000000 -0.000001 6.213745
							CHANNELS 3 Xrotation Yrotation Zrotation
							JOINT RightForeArm
							{
								OFFSET 0.000000 -0.000003 18.098495
								CHANNELS 3 Xrotation Yrotation Zrotation
								JOINT RightForeArmRoll
								{
									OFFSET 0.000000 -0.000001 6.972794
									CHANNELS 3 Xrotation Yrotation Zrotation
									JOINT RightHand
									{
										OFFSET 0.000000 -0.000002 13.992905
										CHANNELS 3 Xrotation Yrotation Zrotation
										End Site
										{
											OFFSET 0.000000 0.000000 0.100006
										}
									}
								}
							}
						}
					}
				}
				JOINT LeftShoulder
				{
					OFFSET 3.659161 0.509512 9.384682
					CHANNELS 3 Xrotation Yrotation Zrotation
					JOINT LeftArm
					{
						OFFSET 0.000000 -0.000002 12.308899
						CHANNELS 3 Xrotation Yrotation Zrotation
						JOINT LeftArmRoll
						{
							OFFSET 0.000000 -0.000001 6.213745
							CHANNELS 3 Xrotation Yrotation Zrotation
							JOINT LeftForeArm
							{
								OFFSET 0.000000 -0.000003 18.098495
								CHANNELS 3 Xrotation Yrotation Zrotation
								JOINT LeftForeArmRoll
								{
									OFFSET 0.000000 -0.000001 6.972794
									CHANNELS 3 Xrotation Yrotation Zrotation
									JOINT LeftHand
									{
										OFFSET 0.000000 -0.000002 13.992905
										CHANNELS 3 Xrotation Yrotation Zrotation
										End Site
										{
											OFFSET 0.000000 0.000000 0.100006
										}
									}
								}
							}
						}
					}
				}
			}
		}
	}
	JOINT RightUpLeg
	{
		OFFSET -5.535160 0.851455 -1.014999
		CHANNELS 3 Xrotation Yrotation Zrotation
		JOINT RightUpLegRoll
		{
			OFFSET 0.000000 -0.000003 16.407501
			CHANNELS 3 Xrotation Yrotation Zrotation
			JOINT RightLeg
			{
				OFFSET 0.000000 0.000003 -20.318100
				CHANNELS 3 Xrotation Yrotation Zrotation
				JOINT RightLegRoll
				{
					OFFSET 0.000000 -0.000003 20.384598
					CHANNELS 3 Xrotation Yrotation Zrotation
					JOINT RightFoot
					{
						OFFSET 0.000000 -0.000003 16.966805
						CHANNELS 3 Xrotation Yrotation Zrotation
						JOINT RightToeBase
						{
							OFFSET 0.000000 -0.000002 14.183395
							CHANNELS 3 Xrotation Yrotation Zrotation
							End Site
							{
								OFFSET 0.006012 0.791744 6.868896
							}
						}
					}
				}
			}
		}
	}
	JOINT LeftUpLeg
	{
		OFFSET 5.535160 0.851455 -1.014999
		CHANNELS 3 Xrotation Yrotation Zrotation
		JOINT LeftUpLegRoll
		{
			OFFSET 0.000000 -0.000003 16.407600
			CHANNELS 3 Xrotation Yrotation Zrotation
			JOINT LeftLeg
			{
				OFFSET 0.000000 -0.000003 20.318100
				CHANNELS 3 Xrotation Yrotation Zrotation
				JOINT LeftLegRoll
				{
					OFFSET 0.000000 -0.000003 20.573105
					CHANNELS 3 Xrotation Yrotation Zrotation
					JOINT LeftFoot
					{
						OFFSET 0.000000 -0.000003 16.778305
						CHANNELS 3 Xrotation Yrotation Zrotation
						JOINT LeftToeBase
						{
							OFFSET 0.000000 -0.000002 14.183395
							CHANNELS 3 Xrotation Yrotation Zrotation
							End Site
							{
								OFFSET -0.026943 0.791744 6.868896
							}
						}
					}
				}
			}
		}
	}
}
MOTION
Frames: 6
Frame Time: 0.041667
45.726795 6.467385 83.736900 4.091816 0.161414 -3.169287 -1.442858 0.186079 0.008951 1.116643 0.363886 0.020899 2.761736 0.364111 0.016538 3.819064 -4.331516 -0.421641 0.730502 2.415184 0.135396 -6.816513 -68.806670 -8.747194 -23.138463 -109.871878 -16.479780 -0.000001 0.000006 -0.000001 16.845208 -12.555425 1.341962 -0.000003 0.000006 -3.000001 -5.000200 -7.998722 0.000180 -15.705982 58.070965 18.522479 -1.355325 117.375544 -15.094894 -0.000001 0.000030 -0.000006 15.867096 3.011860 0.093635 0.000002 -0.000008 3.000001 -5.000191 7.999709 -0.000074 -10.963352 178.892572 -1.865279 -179.999991 0.000005 -0.997995 164.896121 -1.045599 -1.040178 0.000000 -0.000002 0.391378 72.751644 7.040987 1.432505 25.459969 -7.351952 0.000459 -5.272600 178.549164 -1.744974 -0.000005 -0.000004 -1.041010 -15.377966 2.530786 1.121156 0.000005 -0.000000 -0.416814 76.825046 -6.879438 -1.472199 27.326269 7.349633 -0.241099 
45.725395 6.451656 83.732498 4.106116 0.160037 -3.147388 -1.444187 0.186367 0.007283 1.113462 0.365067 0.017811 2.758555 0.365253 0.013436 3.816622 -4.328296 -0.428509 0.701132 2.428018 0.127315 -6.851037 -68.794205 -8.784988 -23.243287 -109.907613 -16.597932 -0.000001 0.000006 -0.000001 16.831692 -12.558987 1.341165 -0.000004 0.000007 -3.000001 -5.000199 -7.998723 0.000181 -15.709789 58.084011 18.527254 -1.475059 117.391759 -14.958546 -0.000000 0.000031 -0.000006 15.880234 3.006325 0.094339 0.000002 -0.000008 3.000000 -5.000192 7.999708 -0.000071 -10.991957 178.892695 -1.863646 -179.999991 0.000005 -0.997995 164.846219 -1.045354 -1.041089 0.000000 -0.000002 0.391600 72.787666 7.040588 1.429578 25.459969 -7.351952 0.000458 -5.350909 178.551336 -1.733428 -0.000005 -0.000004 -1.041010 -15.504941 2.517511 1.125599 0.000006 -0.000000 -0.419675 76.854545 -6.876965 -1.480217 27.360128 7.349623 -0.245469 
45.720997 6.455536 83.728600 4.120477 0.158763 -3.125527 -1.445417 0.186769 0.005438 1.110423 0.366502 0.014389 2.755506 0.366647 0.009998 3.813517 -4.327035 -0.435204 0.671821 2.442003 0.119699 -6.885446 -68.783557 -8.822768 -23.350386 -109.943766 -16.718418 -0.000001 0.000006 -0.000001 16.817068 -12.562904 1.340342 -0.000003 0.000006 -3.000002 -5.000200 -7.998721 0.000180 -15.716281 58.094591 18.535146 -1.593449 117.410050 -14.823553 -0.000001 0.000031 -0.000006 15.893562 3.000259 0.095137 0.000001 -0.000008 2.999999 -5.000193 7.999709 -0.000073 -11.020164 178.892790 -1.862251 -179.999991 0.000005 -0.997995 164.797698 -1.045113 -1.041974 0.000001 -0.000002 0.391803 72.822746 7.040238 1.426718 25.459967 -7.351951 0.000458 -5.428748 178.554505 -1.721674 -0.000005 -0.000004 -1.041010 -15.630702 2.503952 1.129891 0.000006 -0.000000 -0.422481 76.883731 -6.874521 -1.488358 27.393575 7.349621 -0.249780 
45.731094 6.457447 83.723701 4.134884 0.157561 -3.103711 -1.446588 0.187253 0.003470 1.107473 0.368116 0.010731 2.752566 0.368218 0.006321 3.809956 -4.327162 -0.441773 0.642544 2.456805 0.112414 -6.919783 -68.774110 -8.860549 -23.460032 -109.979324 -16.841529 -0.000001 0.000006 -0.000000 16.801738 -12.567060 1.339509 -0.000003 0.000007 -3.000000 -5.000199 -7.998722 0.000180 -15.724644 58.103402 18.545225 -1.710818 117.430432 -14.689519 -0.000001 0.000030 -0.000007 15.907087 2.993815 0.095999 0.000002 -0.000007 3.000002 -5.000192 7.999710 -0.000074 -11.048070 178.892900 -1.861032 -179.999991 0.000005 -0.997995 164.750105 -1.045839 -1.043104 0.000001 -0.000002 0.391992 72.857280 7.039850 1.423888 25.459967 -7.351952 0.000459 -5.506268 178.556677 -1.709630 -0.000005 -0.000004 -1.041010 -15.755664 2.490196 1.134063 0.000005 -0.000000 -0.425247 76.912732 -6.872104 -1.496614 27.426618 7.349632 -0.254046 
45.732292 6.450964 83.720993 4.149313 0.156407 -3.081906 -1.447706 0.187785 0.001430 1.104593 0.369833 0.006938 2.749677 0.369890 0.002507 3.806131 -4.328089 -0.448272 0.613290 2.472068 0.105329 -6.954039 -68.765375 -8.898299 -23.571497 -110.014164 -16.966538 -0.000001 0.000006 -0.000001 16.786021 -12.571434 1.338692 -0.000002 0.000006 -3.000001 -5.000200 -7.998722 0.000180 -15.734099 58.111174 18.556565 -1.827608 117.450908 -14.556040 -0.000001 0.000029 -0.000004 15.920708 2.987167 0.096896 0.000002 -0.000008 3.000002 -5.000192 7.999710 -0.000073 -11.075874 178.892995 -1.859915 -179.999991 0.000005 -0.997995 164.702990 -1.045604 -1.043964 0.000001 -0.000002 0.392174 72.891417 7.039509 1.421188 25.459967 -7.351954 0.000459 -5.583593 178.559873 -1.697565 -0.000005 -0.000004 -1.041010 -15.880016 2.476316 1.138134 0.000005 -0.000000 -0.427990 76.941617 -6.869692 -1.504880 27.459459 7.349643 -0.258292 
45.722797 6.454154 83.714996 4.163755 0.155275 -3.060104 -1.448817 0.188328 -0.000629 1.101713 0.371580 0.003107 2.746797 0.371590 -0.001345 3.802224 -4.329226 -0.454751 0.584040 2.487471 0.098310 -6.988300 -68.756912 -8.936056 -23.681780 -110.050043 -17.090286 -0.000001 0.000006 -0.000002 16.770088 -12.575819 1.337842 -0.000001 0.000005 -3.000000 -5.000199 -7.998724 0.000180 -15.743866 58.118688 18.568271 -1.944087 117.472505 -14.422981 -0.000001 0.000031 -0.000008 15.934432 2.980453 0.097801 0.000001 -0.000008 3.000000 -5.000191 7.999710 -0.000075 -11.103577 178.893118 -1.858819 -179.999991 0.000005 -0.997995 164.656081 -1.045370 -1.044820 0.000000 -0.000002 0.392354 72.925534 7.039122 1.418383 25.459966 -7.351953 0.000458 -5.660880 178.563029 -1.685477 -0.000005 -0.000004 -1.041010 -16.004272 2.462401 1.142142 0.000005 -0.000000 -0.430728 76.970515 -6.867287 -1.513147 27.492302 7.349641 -0.262525 
